<?xml version="1.0" encoding="UTF-8"?>
<svg id="Layer_2" data-name="Layer 2" xmlns="http://www.w3.org/2000/svg" xmlns:xlink="http://www.w3.org/1999/xlink" viewBox="0 0 155 134.1">
    <defs>
        <style>
            .cls-1 {
            fill: #ef4326;
            }

            .cls-2 {
            fill: url(#linear-gradient-2);
            }

            .cls-3 {
            fill: #f47b29;
            }

            .cls-4 {
            fill: url(#linear-gradient);
            }

            .cls-5 {
            fill: #f47721;
            }

            .cls-6 {
            fill: #24baa4;
            }

            .cls-7 {
            fill: #f47723;
            }

            .cls-8 {
            fill: #14afa1;
            }

            .cls-9 {
            fill: #007074;
            }

            .cls-10 {
            fill: #ef4123;
            }
        </style>
        <linearGradient id="linear-gradient" x1="54.95" y1="121.53" x2="153.16" y2="64.83" gradientUnits="userSpaceOnUse">
            <stop offset=".33" stop-color="#048f86"/>
            <stop offset=".64" stop-color="#02817d"/>
            <stop offset="1" stop-color="#016e70"/>
        </linearGradient>
        <linearGradient id="linear-gradient-2" x1="123.41" y1="42.53" x2="148.11" y2="28.27" xlink:href="#linear-gradient"/>
    </defs>
    <g id="Layer_1-2" data-name="Layer 1">
        <g>
            <g>
                <path class="cls-4" d="M134.22,67.05c0-5.83-.75-11.49-2.15-16.88-.41.68-.99,1.57-1.19,1.72l-2.39-2.82c-3.53,15.51-10.74,24.64-14.48,28.23-16.82,16.09-27.17,14.42-53.96,17.22-26.8,2.8-22.08,16.88-22.08,16.88.81,5.03,1.81,12.02,24.43,15.09,8.83,1.2,14.34,3.72,17.77,6.35,30.81-6.05,54.05-33.2,54.05-65.78Z"/>
                <path class="cls-8" d="M96.69,68.59c-10.73,3.24-24.69,4.18-35.32,1.34C17.38,58.2,3.61,76.77,1.52,80.72c1.98,9.56,6,18.38,11.59,25.98l21.73-17.27s15.6.27,49.2-3.26c33.6-3.53,41.65-39.89,41.65-39.89-2.25,3.08-10.04,16.57-29,22.3Z"/>
                <path class="cls-10" d="M117.11,50.87l6.16-7.2-4.36-2.63c-.34-.49,2.79-3.94,3.26-4.09,1.54-.49,3.4.58,4.86.11-1.35-2.7-2.88-5.3-4.57-7.77-.2-.15-.4-.3-.61-.43-.07-.16-.07-.32-.03-.48C109.67,11.2,89.67,0,67.05,0,30.02,0,0,30.02,0,67.05c0,2.58.15,5.11.43,7.61,13.19-13.7,32.39-16.39,49.68-13.05,5.12.99,10.1,2.72,15.27,3.47,17.72,2.58,38.43-.35,51.72-14.22Z"/>
                <path class="cls-9" d="M67.17,134.1c5.42,0,10.69-.65,15.74-1.86-3.11-3.23-8.22-5.79-11.53-6.88-7.86-2.58-16.44-1.6-24.06-5.35-12.18-5.99-17.02-23.9-2.47-27.97,14.38-4.03,34.31-5.42,34.31-5.42,0,0-42.12-8.91-59.82,2-3.97,2.45-8.86,7.31-9.82,12.66,11.69,19.65,33.13,32.82,57.66,32.82Z"/>
                <path class="cls-2" d="M141.14,45.75l-4.49-9.13-5.67,5.26c-.05,2.46,1.02,5.22-.76,7.19-.9.01-2.2-4.9-2.97-5.66-.88-.88-3.71-1.84-4.87-2.65,1.01-2.7,4.32-.57,6.37-1.16l5.19-6.17-8.58-4.83c-.72-.56,1.57-1.6,2.03-1.42l11.06,1.57c1.23-.93,5.77-6.57,7.33-4.48,1.42,1.9-3.72,6.51-4.61,8.11.07,3.3,1.28,7.54,1,10.76-.12,1.34-.59,1.49-1.04,2.62Z"/>
                <path class="cls-6" d="M90.32,102.7c-26.62-1.59-28.16,11.64-28.16,11.64,0,0,3.38-9.79,28.21-.93,9.25,3.3,16.49,3.84,21.94,3.22,5.84-5.32,10.74-11.66,14.41-18.73-17.39,7.2-36.39,4.8-36.39,4.8Z"/>
                <path class="cls-3" d="M57.05,58.18c-.11-6.73,24.08,1.44,14.04-5.05-8.75-5.66-56.21-5.29-68.23-5.1C1.08,54.07.12,60.44.12,67.05c0,2.54.15,5.05.42,7.52,13.19-13.58,32.32-16.25,49.55-12.92,5.12.99,10.1,2.72,15.27,3.47,6.21.9,12.78,1.13,19.27.45,1.55-1,1.75-2.16,1.38-3.06-1.11-2.76-28.87,2.4-28.98-4.33Z"/>
                <path class="cls-5" d="M123.26,43.66l-4.36-2.63c-.34-.49,2.79-3.94,3.26-4.09,1.58-.5,3.48.63,4.96.07-1.31-2.61-2.78-5.12-4.4-7.52-.28-.23-.57-.45-.88-.65-.09-.2-.07-.4,0-.6-2.24-3.15-4.75-6.1-7.5-8.82-8.58.51-24.88,1.67-26.88,3.13-2.73,1.99,11.79,2.7,16.06,3.02,4.27.32,8.92,3.34-1.47,5.16-10.39,1.83-37.65,5.56-11.35,7.71,26.31,2.14-7.96,2.7-8.03,4.61-.05,1.34,22.25,3.74,37.2,4.58l3.38-3.95Z"/>
                <path class="cls-7" d="M6.46,38.56c21.08,1.64,34.72-.8,45.84-1.59,7.3-.52,7.76-1.68,5.96-2.54-1.22-.58-4.03-.99-5.36-1.08l-12.34-.81c-.25-.02-.51-.02-.76-.03-14.03-.06-8.96-3.56-5.18-3.96.63-.07,18.75-1.49,18.75-1.49,18.87-1.82,7.21-4.91,3.68-5.62-7.01-1.42-27.21-2.21-36.56-2.51-5.79,5.61-10.56,12.26-14.03,19.64Z"/>
            </g>
        </g>
    </g>
</svg>
