<?xml version="1.0" encoding="UTF-8"?>
<svg id="Layer_2" data-name="Layer 2" xmlns="http://www.w3.org/2000/svg" xmlns:xlink="http://www.w3.org/1999/xlink" viewBox="0 0 461.4 134.1">
  <defs>
    <style>
      .cls-1 {
        fill: #ef4326;
      }

      .cls-2 {
        fill: url(#linear-gradient-2);
      }

      .cls-3 {
        fill: #f47b29;
      }

      .cls-4 {
        fill: url(#linear-gradient);
      }

      .cls-5 {
        fill: #f47721;
      }

      .cls-6 {
        fill: #24baa4;
      }

      .cls-7 {
        fill: #f47723;
      }

      .cls-8 {
        fill: #14afa1;
      }

      .cls-9 {
        fill: #007074;
      }

      .cls-10 {
        fill: #ef4123;
      }
    </style>
    <linearGradient id="linear-gradient" x1="54.95" y1="121.53" x2="153.16" y2="64.83" gradientUnits="userSpaceOnUse">
      <stop offset=".33" stop-color="#048f86"/>
      <stop offset=".64" stop-color="#02817d"/>
      <stop offset="1" stop-color="#016e70"/>
    </linearGradient>
    <linearGradient id="linear-gradient-2" x1="123.41" y1="42.53" x2="148.11" y2="28.27" xlink:href="#linear-gradient"/>
  </defs>
  <g id="Layer_1-2" data-name="Layer 1">
    <g>
      <g>
        <path class="cls-4" d="M134.22,67.05c0-5.83-.75-11.49-2.15-16.88-.41.68-.99,1.57-1.19,1.72l-2.39-2.82c-3.53,15.51-10.74,24.64-14.48,28.23-16.82,16.09-27.17,14.42-53.96,17.22-26.8,2.8-22.08,16.88-22.08,16.88.81,5.03,1.81,12.02,24.43,15.09,8.83,1.2,14.34,3.72,17.77,6.35,30.81-6.05,54.05-33.2,54.05-65.78Z"/>
        <path class="cls-8" d="M96.69,68.59c-10.73,3.24-24.69,4.18-35.32,1.34C17.38,58.2,3.61,76.77,1.52,80.72c1.98,9.56,6,18.38,11.59,25.98l21.73-17.27s15.6.27,49.2-3.26c33.6-3.53,41.65-39.89,41.65-39.89-2.25,3.08-10.04,16.57-29,22.3Z"/>
        <path class="cls-10" d="M117.11,50.87l6.16-7.2-4.36-2.63c-.34-.49,2.79-3.94,3.26-4.09,1.54-.49,3.4.58,4.86.11-1.35-2.7-2.88-5.3-4.57-7.77-.2-.15-.4-.3-.61-.43-.07-.16-.07-.32-.03-.48C109.67,11.2,89.67,0,67.05,0,30.02,0,0,30.02,0,67.05c0,2.58.15,5.11.43,7.61,13.19-13.7,32.39-16.39,49.68-13.05,5.12.99,10.1,2.72,15.27,3.47,17.72,2.58,38.43-.35,51.72-14.22Z"/>
        <path class="cls-9" d="M67.17,134.1c5.42,0,10.69-.65,15.74-1.86-3.11-3.23-8.22-5.79-11.53-6.88-7.86-2.58-16.44-1.6-24.06-5.35-12.18-5.99-17.02-23.9-2.47-27.97,14.38-4.03,34.31-5.42,34.31-5.42,0,0-42.12-8.91-59.82,2-3.97,2.45-8.86,7.31-9.82,12.66,11.69,19.65,33.13,32.82,57.66,32.82Z"/>
        <path class="cls-2" d="M141.14,45.75l-4.49-9.13-5.67,5.26c-.05,2.46,1.02,5.22-.76,7.19-.9.01-2.2-4.9-2.97-5.66-.88-.88-3.71-1.84-4.87-2.65,1.01-2.7,4.32-.57,6.37-1.16l5.19-6.17-8.58-4.83c-.72-.56,1.57-1.6,2.03-1.42l11.06,1.57c1.23-.93,5.77-6.57,7.33-4.48,1.42,1.9-3.72,6.51-4.61,8.11.07,3.3,1.28,7.54,1,10.76-.12,1.34-.59,1.49-1.04,2.62Z"/>
        <path class="cls-6" d="M90.32,102.7c-26.62-1.59-28.16,11.64-28.16,11.64,0,0,3.38-9.79,28.21-.93,9.25,3.3,16.49,3.84,21.94,3.22,5.84-5.32,10.74-11.66,14.41-18.73-17.39,7.2-36.39,4.8-36.39,4.8Z"/>
        <path class="cls-3" d="M57.05,58.18c-.11-6.73,24.08,1.44,14.04-5.05-8.75-5.66-56.21-5.29-68.23-5.1C1.08,54.07.12,60.44.12,67.05c0,2.54.15,5.05.42,7.52,13.19-13.58,32.32-16.25,49.55-12.92,5.12.99,10.1,2.72,15.27,3.47,6.21.9,12.78,1.13,19.27.45,1.55-1,1.75-2.16,1.38-3.06-1.11-2.76-28.87,2.4-28.98-4.33Z"/>
        <path class="cls-5" d="M123.26,43.66l-4.36-2.63c-.34-.49,2.79-3.94,3.26-4.09,1.58-.5,3.48.63,4.96.07-1.31-2.61-2.78-5.12-4.4-7.52-.28-.23-.57-.45-.88-.65-.09-.2-.07-.4,0-.6-2.24-3.15-4.75-6.1-7.5-8.82-8.58.51-24.88,1.67-26.88,3.13-2.73,1.99,11.79,2.7,16.06,3.02,4.27.32,8.92,3.34-1.47,5.16-10.39,1.83-37.65,5.56-11.35,7.71,26.31,2.14-7.96,2.7-8.03,4.61-.05,1.34,22.25,3.74,37.2,4.58l3.38-3.95Z"/>
        <path class="cls-7" d="M6.46,38.56c21.08,1.64,34.72-.8,45.84-1.59,7.3-.52,7.76-1.68,5.96-2.54-1.22-.58-4.03-.99-5.36-1.08l-12.34-.81c-.25-.02-.51-.02-.76-.03-14.03-.06-8.96-3.56-5.18-3.96.63-.07,18.75-1.49,18.75-1.49,18.87-1.82,7.21-4.91,3.68-5.62-7.01-1.42-27.21-2.21-36.56-2.51-5.79,5.61-10.56,12.26-14.03,19.64Z"/>
      </g>
      <g>
        <path class="cls-1" d="M198.62,72.11v.84c5.53,8.73,9.07,18.03,16.47,25.24,1.34,1.3,5.53,3.47,5.11,5.44-1.08,4.98-9.69,6.36-13.64,5.48-6.98-1.55-12.69-12.59-16.01-18.85-1.38-2.61-4.48-10.99-6.03-12.42-.91-.84-6.76-.16-7.1.94l1.04,27.46c-2.11,3.03-15.28,3.6-17.61,1.13-.64-.68-.58-1.4-.54-2.28.18-4.78,1.43-10.5,1.64-15.48.55-12.88,1-32.15,0-44.75-.15-1.9-.6-3.8-1.2-5.58-1.44-4.25-5.67-6.67-.17-9.04,11.41-4.92,30.59-6.21,42.03-1.13,19.72,8.75,14.61,37.12-4,43ZM177.36,67.52c7.69-.49,19.13-4.84,20.6-14.18,2.27-14.38-9.12-18.15-20.07-15.62l-.53,29.8Z"/>
        <path class="cls-8" d="M370.22,25.85c9.46-1.04,22.97.77,27.85,10.9,4.48,9.31.72,17.31-9.42,16.46-5.78-.48-3.82-2.26-4.61-6.48-.74-3.95-4.81-7.45-8.36-8.18-24.59-5.04-28.76,44.58-11.67,55.57,7.47,4.81,21.36,4.87,22.27-6.83s-6.35-8.71-14.38-10.27c-1.54-5.46-.14-10.08,5.6-10.66,5.44-.55,18.09-.65,23.42.01,1.27.16,2.7.44,2.93,2.03-.59,5.12-2.63,10.9-2.7,16.06-.05,4.59,2.07,9.99-1.12,14.22-4.11,5.44-18.25,10.18-24.65,10.68-51.25,3.99-49.5-78.62-5.15-83.5Z"/>
        <path class="cls-1" d="M268.26,56.05l9.82-5.16c31.11-7.08,19.85,28.47,23.37,47.04.85,4.45,4.58,6.96-1.29,8.86-2.57.83-12.8,1.98-14.1-.86-1.12-11.03,1.61-23.63.13-34.53-1.22-9.02-11.44-10.95-15.91-3.13-2.89,5.06-2.29,13.3-2,19l.24,18.08c-2.4,3.18-15.55,4-17.04.56-.38-.88,1.29-12.83,1.38-15.15.58-14.25,1.11-35.4,0-49.33-.35-4.34-1.99-7.95-4.27-11.43,3.14-2.53,16.71-7.66,19.39-4.29,1.82,2.29.31,5.79.26,8.27-.14,7.35.15,14.74.02,22.09Z"/>
        <path class="cls-8" d="M431.87,48.75c40.35-5.88,38.79,64.6-1.19,60.59-31.36-3.14-27.86-56.36,1.19-60.59ZM432.92,59.63c-8.81,1.63-9.52,17.38-8.89,24.78,1.5,17.6,18.19,21.43,21.64,3.29,1.86-9.76.73-30.57-12.75-28.07Z"/>
        <path class="cls-1" d="M225.86,106.35c-.38-.4-.57-1.25-.57-1.84-.02-4.44,1.35-10.72,1.52-15.48.21-5.7.74-22.02-.98-26.5-.74-1.93-2.29-2.99-2.73-4.99.44-2.03,14.89-5.55,17.14-4.81,3.05.99,1.44,5.51,1.41,7.6-.2,11.89-.6,25.54,0,37.3.24,4.79,3.54,9.23-2.9,10.01-2.37.29-11.36.34-12.89-1.28Z"/>
        <path class="cls-1" d="M323.97,52.18c7.09-.62,3.89,9.58,3.8,14.46-.2,10.65-.57,23.33.61,33.78.45,3.97,2.95,6.31-3.02,7.17-2.52.36-12.96.81-13.52-2.54l1.63-19.45c-.82-9.25,2.5-20.89-4.27-28.11-.03-1.71,12.82-5.14,14.77-5.31Z"/>
        <path class="cls-1" d="M231.97,30.4c12.5-2.18,13.29,17.54.84,17.42-10.01-.1-10.98-15.65-.84-17.42Z"/>
        <path class="cls-1" d="M318.62,30.4c3.88-.7,8.7.75,9.59,5.44,1.49,7.87-3.1,12.59-10.26,11.63-8.03-1.07-8.7-15.37.67-17.07Z"/>
      </g>
    </g>
  </g>
</svg>